<svg xmlns="http://www.w3.org/2000/svg" version="1.1" xmlns:xlink="http://www.w3.org/1999/xlink" width="512" height="512">
  <svg viewBox="0 0 512 512" xmlns="http://www.w3.org/2000/svg" width="512" height="512">
    <rect width="512" height="512" fill="hsl(0, 0%, 3.9%)"></rect>
    <g transform="translate(256, 256) scale(1.9) translate(-110, -42)">
      <path d="M31.421,67.761L36.533,78.717L48.949,78.717C59.175,78.717 68.669,72.852 73.782,63.576C80.355,50.05 87.659,35.552 94.232,22.033C97.153,16.46 102.996,12.947 108.839,12.947L155.582,12.947C157.773,12.947 159.234,13.736 159.964,15.095C159.964,15.095 197.213,61.531 205.977,72.655C206.707,73.093 206.707,73.692 206.707,74.196C205.977,74.707 205.977,75.028 205.247,75.028C192.1,75.028 143.896,75.036 143.896,75.036C137.323,75.036 131.48,71.522 128.559,65.95L122.716,53.65C118.334,44.368 108.839,38.51 98.614,38.51L92.771,49.465L98.614,49.465C104.457,49.465 110.3,52.979 113.221,58.551L119.064,70.851C123.446,80.133 132.941,85.991 143.896,85.991C150.47,85.991 213.281,85.984 213.281,85.984C216.933,85.984 219.854,84.129 221.315,81.222C222.775,78.308 222.045,74.86 219.854,72.333C209.629,58.931 178.954,20.959 168.729,8.251C165.807,4.292 160.695,1.992 155.582,1.992L108.839,1.992C98.614,1.992 89.119,7.849 84.737,17.132C77.434,30.659 70.13,45.149 63.557,58.675C60.635,64.241 55.523,67.761 48.949,67.761L31.421,67.761ZM16.814,38.51L21.926,49.465L56.253,49.465L61.366,38.51L16.814,38.51ZM2.206,9.295L7.319,20.251L70.86,20.251L75.973,9.295L2.206,9.295Z" fill="white"></path>
    </g>
  </svg>
  <style>
    @media (prefers-color-scheme: light) {
      :root {
        filter: none;
      }
    }

    @media (prefers-color-scheme: dark) {
      :root {
        filter: none;
      }
    }
  </style>
</svg>